:SAMPLES-PER-SECOND 30
:FULLY-SPECIFIED
:DEGREES
203
root  -30.9397 40.9265 5.85735 -153.319 -80.4021 155.983
RightUpLeg  -2.96364 -12.3413 -16.2539
RightLeg  4.49843 -1.49896 1.03369
RightFoot  -0.999151 -0.813996 8.90166
RightToes  0.000482159 0.542163 -0.142577
Spine  13.9083 1.1065 6.12
Spine1  10.612 3.63454 -5.95055
HEad  -20.7616 -5.95478 -0.23564
LeftShoulder1  6.54339 -11.5707 -37.2816
LeftArm  -16.6958 3.79682 -30.9299
LeftForeArm  49.2077 -53.3776 -11.1182
LeftHand  -0.25398 0.0180481 5.50724
RightShoulder  6.35844 11.0165 37.754
RightArm  -14.7281 4.15443 31.1736
RightForeArm  7.11784 13.4552 5.1868
RightHand  -1.52951 4.53182 -18.1114
LeftUpLeg  -8.88678 2.52385 -1.75815
LeftLeg  -0.00558937 15.3393 -5.55693
LeftFoot  5.2393 -0.624886 4.06824
LeftToes  1.06244e-005 4.65856e-005 -8.18505e-006
204
root  -30.9609 40.9322 5.79813 -153.652 -80.4479 156.157
RightUpLeg  -2.76647 -12.296 -16.1708
RightLeg  4.58205 -1.5259 1.04968
RightFoot  -1.11176 -0.798457 8.81859
RightToes  0.000482159 0.542163 -0.142577
Spine  13.5191 1.13194 6.0255
Spine1  10.7728 3.5591 -5.68598
HEad  -21.1399 -6.62718 -0.120881
LeftShoulder1  6.61198 -11.6979 -37.3667
LeftArm  -15.6927 3.65641 -31.2745
LeftForeArm  49.9041 -53.938 -11.3331
LeftHand  -0.25398 0.0180481 5.50724
RightShoulder  6.56505 11.1626 38.6885
RightArm  -12.6265 3.64673 32.557
RightForeArm  12.1728 14.8114 4.89103
RightHand  -1.32534 3.95594 -16.6846
LeftUpLeg  -8.65757 2.70942 -1.58549
LeftLeg  0.0127081 15.1464 -5.62595
LeftFoot  5.17586 -0.604137 3.94399
LeftToes  1.06244e-005 4.65856e-005 -8.18505e-006
205
root  -30.9817 40.9354 5.74492 -153.878 -80.5088 156.235
RightUpLeg  -2.60894 -12.2335 -16.084
RightLeg  4.72283 -1.5982 1.0278
RightFoot  -1.26602 -0.781495 8.75053
RightToes  0.000482159 0.542163 -0.142577
Spine  13.0824 1.1553 5.78879
Spine1  10.9829 3.3939 -5.16907
HEad  -21.3634 -7.0148 -0.242051
LeftShoulder1  6.71702 -11.8003 -37.7484
LeftArm  -14.6154 3.84922 -31.6023
LeftForeArm  49.9798 -53.5421 -11.1405
LeftHand  -0.25398 0.0180481 5.50724
RightShoulder  6.68305 11.2751 39.1257
RightArm  -10.2611 2.81587 34.0421
RightForeArm  14.5686 16.886 4.59155
RightHand  -1.14851 3.46614 -15.2811
LeftUpLeg  -8.44726 2.83719 -1.45191
LeftLeg  0.0312052 14.9973 -5.64807
LeftFoot  5.12416 -0.580509 3.79565
LeftToes  1.06244e-005 4.65856e-005 -8.18505e-006
206
root  -30.9994 40.9364 5.6965 -154.027 -80.5652 156.135
RightUpLeg  -2.36166 -12.1842 -16.0516
RightLeg  4.90657 -1.62805 0.986941
RightFoot  -1.485 -0.76317 8.71668
RightToes  0.000482159 0.542163 -0.142577
Spine  12.7345 1.12768 5.60592
Spine1  11.1714 3.22713 -4.80052
HEad  -21.3606 -7.01398 -0.353934
LeftShoulder1  6.78718 -11.8602 -38.0232
LeftArm  -13.3228 4.21635 -32.0629
LeftForeArm  49.3915 -51.9588 -10.4674
LeftHand  -0.25398 0.0180481 5.50724
RightShoulder  6.72039 11.3381 39.182
RightArm  -8.4389 1.87771 35.625
RightForeArm  14.8735 18.8139 4.35038
RightHand  -1.01171 3.09085 -14.0809
LeftUpLeg  -8.1265 2.93508 -1.36256
LeftLeg  0.0317737 14.8609 -5.6543
LeftFoot  5.07877 -0.560253 3.66799
LeftToes  1.06244e-005 4.65856e-005 -8.18505e-006
207
root  -31.0105 40.9331 5.64923 -154.23 -80.5543 155.962
RightUpLeg  -2.06709 -12.1491 -16.0745
RightLeg  5.21854 -1.52817 0.912125
RightFoot  -1.80082 -0.74331 8.74341
RightToes  0.000482159 0.542163 -0.142577
Spine  12.509 1.04688 5.56869
Spine1  11.3244 3.1253 -4.78581
HEad  -21.0315 -6.72765 -0.32418
LeftShoulder1  6.81455 -11.8954 -38.0971
LeftArm  -11.7292 4.65545 -32.5406
LeftForeArm  48.2019 -49.1821 -9.40695
LeftHand  -0.25398 0.0180481 5.50724
RightShoulder  6.6865 11.3161 39.0277
RightArm  -7.42326 1.21616 37.1862
RightForeArm  14.1222 19.9208 4.27177
RightHand  -0.953375 2.88663 -13.5983
LeftUpLeg  -7.69441 3.09061 -1.27634
LeftLeg  0.0768477 14.7129 -5.70603
LeftFoot  4.99562 -0.542715 3.56838
LeftToes  1.06244e-005 4.65856e-005 -8.18505e-006
